<svg width="259" height="259" viewBox="0 0 259 259" fill="none" xmlns="http://www.w3.org/2000/svg">
<rect width="259" height="259" rx="28" fill="#DCF247"/>
<path d="M190 164.75C190 174.417 187.75 183.583 183.25 192.25C178.917 200.917 171.75 208 161.75 213.5C151.75 218.833 138.5 221.5 122 221.5C113.333 221.5 106 221.083 100 220.25C94.1667 219.583 88.8333 218.417 84 216.75C79.1667 215.083 73.8333 212.917 68 210.25V167.25C77.6667 172.083 87.3333 175.833 97 178.5C106.667 181 115 182.25 122 182.25C125.667 182.25 128.75 181.667 131.25 180.5C133.75 179.333 135.583 177.75 136.75 175.75C138.083 173.75 138.75 171.5 138.75 169C138.75 165.833 138 163.167 136.5 161C135 158.833 132.167 156.583 128 154.25C123.833 151.917 117.75 149.083 109.75 145.75C102.25 142.583 95.8333 139.333 90.5 136C85.3333 132.667 81.1667 128.917 78 124.75C74.8333 120.583 72.5 115.75 71 110.25C69.5 104.583 68.75 97.9167 68.75 90.25C68.75 78.75 71.5833 69.1667 77.25 61.5C83.0833 53.6667 91 47.8333 101 44C111 40 122.5 38 135.5 38C147.833 38 158.583 39.3333 167.75 42C177.083 44.5 184.667 47.4167 190.5 50.75L175.25 88C168.583 84.5 161.5 81.75 154 79.75C146.5 77.5833 139.833 76.5 134 76.5C130.5 76.5 127.667 77 125.5 78C123.333 79 121.75 80.4167 120.75 82.25C119.75 83.9167 119.25 85.8333 119.25 88C119.25 90.8333 120.167 93.3333 122 95.5C124 97.6667 127.417 100.083 132.25 102.75C137.25 105.25 144.167 108.667 153 113C161 116.667 167.75 120.75 173.25 125.25C178.75 129.75 182.917 135.167 185.75 141.5C188.583 147.667 190 155.417 190 164.75Z" fill="black"/>
</svg>
