<svg width="12" height="7" viewBox="0 0 12 7" fill="none" xmlns="http://www.w3.org/2000/svg">
<path d="M0.275 6.275C0.0916663 6.09167 0 5.85833 0 5.575C0 5.29167 0.0916663 5.05833 0.275 4.875L4.875 0.275C4.975 0.175 5.08333 0.104333 5.2 0.0629997C5.31667 0.0216664 5.44167 0.000666667 5.575 0C5.70833 0 5.83767 0.0249998 5.963 0.0749998C6.08833 0.125 6.19233 0.191666 6.275 0.275L10.875 4.875C11.0583 5.05833 11.15 5.29167 11.15 5.575C11.15 5.85833 11.0583 6.09167 10.875 6.275C10.6917 6.45833 10.4583 6.55 10.175 6.55C9.89167 6.55 9.65833 6.45833 9.475 6.275L5.575 2.375L1.675 6.275C1.49167 6.45833 1.25833 6.55 0.975 6.55C0.691667 6.55 0.458333 6.45833 0.275 6.275Z" fill="black"/>
</svg>
