<svg width="15" height="15" viewBox="0 0 15 15" fill="none" xmlns="http://www.w3.org/2000/svg">
<path d="M5 5.5C5 4.83696 5.26339 4.20107 5.73223 3.73223C6.20107 3.26339 6.83696 3 7.5 3C8.16304 3 8.79893 3.26339 9.26777 3.73223C9.73661 4.20107 10 4.83696 10 5.5C10 6.16304 9.73661 6.79893 9.26777 7.26777C8.79893 7.73661 8.16304 8 7.5 8C6.83696 8 6.20107 7.73661 5.73223 7.26777C5.26339 6.79893 5 6.16304 5 5.5Z" fill="black"/>
<path fill-rule="evenodd" clip-rule="evenodd" d="M7.5 0C5.51088 0 3.60322 0.790176 2.1967 2.1967C0.790176 3.60322 0 5.51088 0 7.5C0 9.48912 0.790176 11.3968 2.1967 12.8033C3.60322 14.2098 5.51088 15 7.5 15C9.48912 15 11.3968 14.2098 12.8033 12.8033C14.2098 11.3968 15 9.48912 15 7.5C15 5.51088 14.2098 3.60322 12.8033 2.1967C11.3968 0.790176 9.48912 0 7.5 0ZM1 7.5C1.00002 6.42467 1.26682 5.36615 1.77649 4.41928C2.28617 3.47241 3.02279 2.66679 3.92036 2.07459C4.81793 1.48239 5.8484 1.12213 6.91943 1.02608C7.99045 0.930034 9.06858 1.1012 10.0572 1.52425C11.0458 1.9473 11.914 2.60901 12.584 3.45009C13.254 4.29116 13.7049 5.28533 13.8963 6.34349C14.0876 7.40166 14.0134 8.49077 13.6804 9.51322C13.3474 10.5357 12.7659 11.4595 11.988 12.202C11.9133 11.3284 11.5135 10.5146 10.8676 9.92168C10.2217 9.32874 9.37679 8.99982 8.5 9H6.5C5.62321 8.99982 4.77828 9.32874 4.13238 9.92168C3.48648 10.5146 3.08665 11.3284 3.012 12.202C2.37527 11.5957 1.86855 10.8662 1.52266 10.0578C1.17677 9.24949 0.998941 8.37923 1 7.5Z" fill="black"/>
</svg>
