<svg width="100" height="100" viewBox="0 0 100 100" fill="none" xmlns="http://www.w3.org/2000/svg">
<g clip-path="url(#clip0_110_2331)">
<path d="M99.9523 50.9355C99.9523 46.8386 99.6121 43.8489 98.8758 40.7485H50.9961V59.2401H79.1004C78.534 63.8355 75.4742 70.7561 68.6746 75.4065L68.5793 76.0256L83.718 87.4847L84.7668 87.587C94.3992 78.8947 99.9523 66.1053 99.9523 50.9355Z" fill="#4285F4"/>
<path d="M50.9961 99.6565C64.7648 99.6565 76.3238 95.2271 84.7668 87.587L68.6746 75.4065C64.3684 78.3408 58.5887 80.3893 50.9961 80.3893C37.5105 80.3893 26.0648 71.6973 21.9848 59.6832L21.3867 59.7328L5.64531 71.6363L5.43945 72.1954C13.8254 88.4725 31.0508 99.6565 50.9961 99.6565Z" fill="#34A853"/>
<path d="M21.9848 59.6832C20.9082 56.5828 20.2852 53.2607 20.2852 49.8282C20.2852 46.3954 20.9082 43.0737 21.9281 39.9733L21.8996 39.313L5.96094 27.2183L5.43945 27.4607C1.9832 34.2153 0 41.8004 0 49.8282C0 57.8561 1.9832 65.4408 5.43945 72.1954L21.9848 59.6832Z" fill="#FBBC05"/>
<path d="M50.9961 19.2668C60.5719 19.2668 67.0313 23.3084 70.7145 26.6859L85.1066 12.9553C76.2676 4.92748 64.7648 0 50.9961 0C31.0508 0 13.8254 11.1836 5.43945 27.4607L21.9281 39.9733C26.0648 27.9592 37.5105 19.2668 50.9961 19.2668Z" fill="#EB4335"/>
</g>
<defs>
<clipPath id="clip0_110_2331">
<rect width="100" height="100" fill="white"/>
</clipPath>
</defs>
</svg>
