<svg width="13" height="21" viewBox="0 0 13 21" fill="none" xmlns="http://www.w3.org/2000/svg">
<path d="M1.84861e-08 10.0006C-9.54457e-05 11.5708 0.36955 13.1189 1.07901 14.5196C1.78847 15.9204 2.8178 17.1343 4.08367 18.0633C5.34955 18.9922 6.81638 19.6101 8.36542 19.8667C9.91446 20.1234 11.5022 20.0117 13 19.5406C10.9696 18.9025 9.19571 17.6333 7.93641 15.9175C6.67711 14.2017 5.99807 12.1289 5.99807 10.0006C5.99807 7.87229 6.67711 5.79949 7.93641 4.08371C9.19571 2.36794 10.9696 1.09869 13 0.460609C11.5022 -0.0104379 9.91446 -0.122157 8.36542 0.134498C6.81638 0.391153 5.34955 1.00897 4.08367 1.93792C2.8178 2.86688 1.78847 4.08087 1.07901 5.4816C0.36955 6.88234 -9.54457e-05 8.43045 1.84861e-08 10.0006Z" fill="#DCF247"/>
</svg>
