<svg width="13" height="13" viewBox="0 0 13 13" fill="none" xmlns="http://www.w3.org/2000/svg">
<path d="M4.76667 0.000867187C4.36245 -0.00880401 3.96039 0.062501 3.58412 0.210588C3.20785 0.358674 2.86498 0.580552 2.57568 0.86317C2.28638 1.14579 2.05648 1.48344 1.89952 1.85626C1.74256 2.22908 1.66171 2.62954 1.66171 3.03408C1.66171 3.43863 1.74256 3.83909 1.89952 4.21191C2.05648 4.58473 2.28638 4.92238 2.57568 5.205C2.86498 5.48762 3.20785 5.70949 3.58412 5.85758C3.96039 6.00567 4.36245 6.07697 4.76667 6.0673C5.17088 6.07697 5.57295 6.00567 5.94922 5.85758C6.32548 5.70949 6.66835 5.48762 6.95765 5.205C7.24696 4.92238 7.47685 4.58473 7.63381 4.21191C7.79077 3.83909 7.87163 3.43863 7.87163 3.03408C7.87163 2.62954 7.79077 2.22908 7.63381 1.85626C7.47685 1.48344 7.24696 1.14579 6.95765 0.86317C6.66835 0.580552 6.32548 0.358674 5.94922 0.210588C5.57295 0.062501 5.17088 -0.00880401 4.76667 0.000867187ZM10.4 4.33651V6.07077H8.66667V6.9379H10.4V8.67216H11.2667V6.9379H13V6.07077H11.2667V4.33651H10.4ZM6.5 7.79983H3.03333C2.22884 7.79983 1.4573 8.11958 0.888443 8.68874C0.319582 9.25791 0 10.0299 0 10.8348L0 13H9.53333V10.8348C9.53333 10.0299 9.21375 9.25791 8.64489 8.68874C8.07603 8.11958 7.30449 7.79983 6.5 7.79983Z" fill="black"/>
</svg>
