<svg width="20" height="20" viewBox="0 0 20 20" fill="none" xmlns="http://www.w3.org/2000/svg">
<path d="M9.23077 1.53846V0.769231C9.23077 0.565218 9.31181 0.369561 9.45607 0.225302C9.60033 0.0810437 9.79599 0 10 0C10.204 0 10.3997 0.0810437 10.5439 0.225302C10.6882 0.369561 10.7692 0.565218 10.7692 0.769231V1.53846C10.7692 1.74247 10.6882 1.93813 10.5439 2.08239C10.3997 2.22665 10.204 2.30769 10 2.30769C9.79599 2.30769 9.60033 2.22665 9.45607 2.08239C9.31181 1.93813 9.23077 1.74247 9.23077 1.53846ZM10 3.84615C8.78288 3.84615 7.5931 4.20707 6.58111 4.88326C5.56911 5.55946 4.78036 6.52056 4.31459 7.64503C3.84882 8.76949 3.72695 10.0068 3.9644 11.2006C4.20185 12.3943 4.78794 13.4908 5.64857 14.3514C6.5092 15.2121 7.60572 15.7982 8.79944 16.0356C9.99317 16.2731 11.2305 16.1512 12.355 15.6854C13.4794 15.2196 14.4405 14.4309 15.1167 13.4189C15.7929 12.4069 16.1538 11.2171 16.1538 10C16.1521 8.36845 15.5031 6.80423 14.3495 5.65054C13.1958 4.49686 11.6316 3.84794 10 3.84615ZM3.30192 4.39039C3.44626 4.53472 3.64203 4.61581 3.84615 4.61581C4.05028 4.61581 4.24605 4.53472 4.39038 4.39038C4.53472 4.24605 4.61581 4.05028 4.61581 3.84615C4.61581 3.64203 4.53472 3.44626 4.39039 3.30192L3.62115 2.53269C3.47681 2.38835 3.28105 2.30726 3.07692 2.30726C2.8728 2.30726 2.67703 2.38835 2.53269 2.53269C2.38835 2.67703 2.30726 2.8728 2.30726 3.07692C2.30726 3.28105 2.38835 3.47681 2.53269 3.62115L3.30192 4.39039ZM3.30192 15.6096L2.53269 16.3788C2.38835 16.5232 2.30726 16.719 2.30726 16.9231C2.30726 17.1272 2.38835 17.323 2.53269 17.4673C2.67703 17.6116 2.8728 17.6927 3.07692 17.6927C3.28105 17.6927 3.47681 17.6116 3.62115 17.4673L4.39039 16.6981C4.46185 16.6266 4.51855 16.5418 4.55723 16.4484C4.5959 16.355 4.61581 16.2549 4.61581 16.1538C4.61581 16.0528 4.5959 15.9527 4.55723 15.8593C4.51855 15.7659 4.46185 15.6811 4.39039 15.6096C4.31892 15.5381 4.23407 15.4815 4.14069 15.4428C4.04731 15.4041 3.94723 15.3842 3.84615 15.3842C3.74508 15.3842 3.645 15.4041 3.55162 15.4428C3.45824 15.4815 3.37339 15.5381 3.30192 15.6096ZM16.1538 4.61538C16.2549 4.61546 16.355 4.59563 16.4483 4.55703C16.5417 4.51842 16.6266 4.4618 16.6981 4.39039L17.4673 3.62115C17.6116 3.47681 17.6927 3.28105 17.6927 3.07692C17.6927 2.8728 17.6116 2.67703 17.4673 2.53269C17.323 2.38835 17.1272 2.30726 16.9231 2.30726C16.719 2.30726 16.5232 2.38835 16.3788 2.53269L15.6096 3.30192C15.5019 3.4095 15.4286 3.54662 15.3988 3.69592C15.3691 3.84521 15.3843 3.99998 15.4426 4.14061C15.5009 4.28124 15.5996 4.40142 15.7262 4.48594C15.8528 4.57045 16.0016 4.6155 16.1538 4.61538ZM16.6981 15.6096C16.5537 15.4653 16.358 15.3842 16.1538 15.3842C15.9497 15.3842 15.754 15.4653 15.6096 15.6096C15.4653 15.754 15.3842 15.9497 15.3842 16.1538C15.3842 16.358 15.4653 16.5537 15.6096 16.6981L16.3788 17.4673C16.4503 17.5388 16.5352 17.5955 16.6285 17.6341C16.7219 17.6728 16.822 17.6927 16.9231 17.6927C17.0242 17.6927 17.1242 17.6728 17.2176 17.6341C17.311 17.5955 17.3958 17.5388 17.4673 17.4673C17.5388 17.3958 17.5955 17.311 17.6341 17.2176C17.6728 17.1242 17.6927 17.0242 17.6927 16.9231C17.6927 16.822 17.6728 16.7219 17.6341 16.6285C17.5955 16.5352 17.5388 16.4503 17.4673 16.3788L16.6981 15.6096ZM1.53846 9.23077H0.769231C0.565218 9.23077 0.369561 9.31181 0.225302 9.45607C0.0810437 9.60033 0 9.79599 0 10C0 10.204 0.0810437 10.3997 0.225302 10.5439C0.369561 10.6882 0.565218 10.7692 0.769231 10.7692H1.53846C1.74247 10.7692 1.93813 10.6882 2.08239 10.5439C2.22665 10.3997 2.30769 10.204 2.30769 10C2.30769 9.79599 2.22665 9.60033 2.08239 9.45607C1.93813 9.31181 1.74247 9.23077 1.53846 9.23077ZM10 17.6923C9.79599 17.6923 9.60033 17.7734 9.45607 17.9176C9.31181 18.0619 9.23077 18.2575 9.23077 18.4615V19.2308C9.23077 19.4348 9.31181 19.6304 9.45607 19.7747C9.60033 19.919 9.79599 20 10 20C10.204 20 10.3997 19.919 10.5439 19.7747C10.6882 19.6304 10.7692 19.4348 10.7692 19.2308V18.4615C10.7692 18.2575 10.6882 18.0619 10.5439 17.9176C10.3997 17.7734 10.204 17.6923 10 17.6923ZM19.2308 9.23077H18.4615C18.2575 9.23077 18.0619 9.31181 17.9176 9.45607C17.7734 9.60033 17.6923 9.79599 17.6923 10C17.6923 10.204 17.7734 10.3997 17.9176 10.5439C18.0619 10.6882 18.2575 10.7692 18.4615 10.7692H19.2308C19.4348 10.7692 19.6304 10.6882 19.7747 10.5439C19.919 10.3997 20 10.204 20 10C20 9.79599 19.919 9.60033 19.7747 9.45607C19.6304 9.31181 19.4348 9.23077 19.2308 9.23077Z" fill="#F24E1E"/>
</svg>
