<svg id="Layer_1" data-name="Layer 1" xmlns="http://www.w3.org/2000/svg" viewBox="0 0 1142.441 922.952" width="466px" height="380.3125px"><ellipse cx="416.343" cy="111.003" rx="31.227" ry="20.363" transform="translate(176.447 468.932) rotate(-71.097)" fill="#f4f4f4"></ellipse><ellipse cx="388.27" cy="83.393" rx="15.05" ry="23.003" transform="translate(0.033 166.94) rotate(-24.266)" fill="#f4f4f4"></ellipse><path d="M383.392,131.283h40.533a13.442,13.442,0,0,1,13.442,13.442v18.441a13.442,13.442,0,0,1-13.442,13.442H383.392a0,0,0,0,1,0,0V131.283A0,0,0,0,1,383.392,131.283Z" fill="#f4f4f4"></path><g opacity="0.05"><path d="M383.392,131.283h40.533a13.442,13.442,0,0,1,13.442,13.442v18.441a13.442,13.442,0,0,1-13.442,13.442H383.392a0,0,0,0,1,0,0V131.283A0,0,0,0,1,383.392,131.283Z" fill="#292a2e"></path></g><g opacity="0.05"><path d="M432.19,99.992l-.051,0a.5.5,0,0,1-.39-.262,1.575,1.575,0,0,1-.028-1.138,5.185,5.185,0,0,0-.168-2.953.5.5,0,1,1,.937-.35,6.18,6.18,0,0,1,.329,2.827,8.781,8.781,0,0,1,1.928-1.333.5.5,0,0,1,.449.893,8.292,8.292,0,0,0-2.62,2.138A.5.5,0,0,1,432.19,99.992Z" fill="#292a2e"></path><path d="M417.031,88.087a.5.5,0,0,1-.19-.038,1.548,1.548,0,0,1-.739-.861,4.97,4.97,0,0,0-1.961-2.159.5.5,0,0,1,.5-.868,5.943,5.943,0,0,1,2.01,1.95,9.246,9.246,0,0,1,.654-2.288.5.5,0,0,1,.916.4,8.667,8.667,0,0,0-.688,3.368.5.5,0,0,1-.5.5Z" fill="#292a2e"></path><path d="M404.25,104.213a.518.518,0,0,1-.19-.037,1.535,1.535,0,0,1-.735-.854,4.988,4.988,0,0,0-1.966-2.167.5.5,0,0,1,.5-.868,5.949,5.949,0,0,1,2.011,1.951,9.2,9.2,0,0,1,.652-2.289.5.5,0,0,1,.916.4,8.651,8.651,0,0,0-.686,3.367.5.5,0,0,1-.5.5Z" fill="#292a2e"></path><path d="M417.818,101.775a.513.513,0,0,1-.189-.037,1.54,1.54,0,0,1-.738-.86,5,5,0,0,0-1.963-2.162.5.5,0,1,1,.5-.867,5.952,5.952,0,0,1,2.008,1.949,9.182,9.182,0,0,1,.653-2.287.5.5,0,1,1,.916.4,8.634,8.634,0,0,0-.687,3.368.5.5,0,0,1-.5.5Z" fill="#292a2e"></path><path d="M426.448,115.871a.5.5,0,0,1-.5-.44,1.566,1.566,0,0,1,.379-1.067,5.136,5.136,0,0,0,.9-2.811.5.5,0,0,1,.5-.5h0a.5.5,0,0,1,.5.5,6.139,6.139,0,0,1-.712,2.769,8.671,8.671,0,0,1,2.285-.52.5.5,0,1,1,.083,1,8.114,8.114,0,0,0-3.2,1A.489.489,0,0,1,426.448,115.871Z" fill="#292a2e"></path><path d="M405.394,124.559a.511.511,0,0,1-.2-.044,1.557,1.557,0,0,1-.711-.885,5,5,0,0,0-1.895-2.22.5.5,0,1,1,.525-.851,5.952,5.952,0,0,1,1.949,2.012,9.236,9.236,0,0,1,.722-2.266.5.5,0,0,1,.9.43,8.646,8.646,0,0,0-.789,3.343.5.5,0,0,1-.236.406A.51.51,0,0,1,405.394,124.559Z" fill="#292a2e"></path><path d="M417.921,129.2a.436.436,0,0,1-.051,0,.5.5,0,0,1-.392-.263,1.586,1.586,0,0,1-.029-1.132,5.188,5.188,0,0,0-.166-2.958.5.5,0,0,1,.936-.352,6.174,6.174,0,0,1,.33,2.829,8.747,8.747,0,0,1,1.927-1.334.5.5,0,0,1,.45.893,8.292,8.292,0,0,0-2.62,2.139A.5.5,0,0,1,417.921,129.2Z" fill="#292a2e"></path></g><g opacity="0.05"><path d="M395.464,81.489l-.051,0a.5.5,0,0,1-.391-.263,1.58,1.58,0,0,1-.028-1.138,5.176,5.176,0,0,0-.168-2.953.5.5,0,1,1,.937-.35,6.169,6.169,0,0,1,.33,2.827,8.771,8.771,0,0,1,1.927-1.332.5.5,0,0,1,.45.892,8.309,8.309,0,0,0-2.621,2.138A.5.5,0,0,1,395.464,81.489Z" fill="#292a2e"></path><path d="M384.953,70.3a.518.518,0,0,1-.19-.037,1.537,1.537,0,0,1-.737-.859,4.98,4.98,0,0,0-1.964-2.162.5.5,0,0,1,.5-.868,5.967,5.967,0,0,1,2.009,1.95,9.244,9.244,0,0,1,.652-2.288.5.5,0,0,1,.916.4,8.651,8.651,0,0,0-.686,3.367.5.5,0,0,1-.224.412A.492.492,0,0,1,384.953,70.3Z" fill="#292a2e"></path><path d="M383.267,82.2a.485.485,0,0,1-.19-.038,1.546,1.546,0,0,1-.738-.861,4.982,4.982,0,0,0-1.961-2.159.5.5,0,1,1,.5-.867,5.94,5.94,0,0,1,2.01,1.949,9.225,9.225,0,0,1,.653-2.287.5.5,0,0,1,.916.4,8.667,8.667,0,0,0-.688,3.368.5.5,0,0,1-.5.495Z" fill="#292a2e"></path><path d="M391.9,96.3a.5.5,0,0,1-.5-.442,1.582,1.582,0,0,1,.379-1.065,5.141,5.141,0,0,0,.9-2.812.5.5,0,0,1,.5-.5h0a.5.5,0,0,1,.5.5,6.149,6.149,0,0,1-.712,2.769,8.634,8.634,0,0,1,2.285-.521.514.514,0,0,1,.539.458.5.5,0,0,1-.457.539,8.094,8.094,0,0,0-3.2,1A.493.493,0,0,1,391.9,96.3Z" fill="#292a2e"></path><path d="M381.44,93.2a1.615,1.615,0,0,1-.947-.419,4.834,4.834,0,0,0-2.711-.986.5.5,0,0,1-.484-.515.493.493,0,0,1,.515-.485,5.814,5.814,0,0,1,2.675.782,9.255,9.255,0,0,1-.459-2.358.5.5,0,0,1,.471-.527.475.475,0,0,1,.527.47,8.662,8.662,0,0,0,.909,3.312.5.5,0,0,1-.008.464.5.5,0,0,1-.387.256A.881.881,0,0,1,381.44,93.2Z" fill="#292a2e"></path></g><rect x="245.753" y="143.591" width="111.51" height="32" transform="translate(603.016 319.182) rotate(180)" fill="#f4f4f4"></rect><rect x="245.753" y="143.591" width="111.51" height="32" transform="translate(603.016 319.182) rotate(180)" fill="#292a2e" opacity="0.05"></rect><rect x="260.728" y="143.591" width="14.612" height="32" transform="translate(536.067 319.182) rotate(180)" fill="#fff"></rect><rect x="282.261" y="149.673" width="60.754" height="18.963" transform="translate(625.275 318.309) rotate(180)" fill="#fff"></rect><rect x="219.165" y="111.621" width="109.978" height="32" transform="translate(548.308 255.243) rotate(-180)" fill="#f4f4f4"></rect><rect x="299.963" y="111.621" width="14.411" height="32" transform="translate(614.337 255.243) rotate(-180)" fill="#292a2e" opacity="0.05"></rect><rect x="233.218" y="117.704" width="59.919" height="18.963" transform="translate(526.355 254.371) rotate(-180)" fill="#fff"></rect><rect x="133.77" y="106.81" width="111.51" height="32" transform="translate(406.017 58.517) rotate(130.517)" fill="#f4f4f4"></rect><rect x="160.472" y="132.258" width="14.612" height="32" transform="translate(389.487 117.03) rotate(130.517)" fill="#292a2e" opacity="0.05"></rect><rect x="166.048" y="104.585" width="60.754" height="18.963" transform="translate(410.751 38.847) rotate(130.517)" fill="#292a2e" opacity="0.05"></rect><rect x="127.015" y="175.007" width="321.971" height="12.652" fill="#f4f4f4"></rect><rect x="512.87" y="1" width="453.17" height="527.791" rx="16.26" fill="#fff"></rect><path d="M949.78,529.791H529.13a17.28,17.28,0,0,1-17.26-17.26V17.26A17.28,17.28,0,0,1,529.13,0H949.78a17.28,17.28,0,0,1,17.26,17.26V512.531A17.28,17.28,0,0,1,949.78,529.791ZM529.13,2a15.278,15.278,0,0,0-15.26,15.26V512.531a15.278,15.278,0,0,0,15.26,15.26H949.78a15.278,15.278,0,0,0,15.26-15.26V17.26A15.278,15.278,0,0,0,949.78,2Z" fill="#292a2e"></path><circle id="gra7_p" cx="787.082" cy="71.105" r="9.747" fill="#367cff"></circle><circle id="gra7_p-2" data-name="gra7_p" cx="787.082" cy="71.105" r="9.747" fill="#367cff"></circle><circle id="gra7_p-3" data-name="gra7_p" cx="787.082" cy="120.789" r="9.747" fill="#292a2e"></circle><circle id="gra7_p-4" data-name="gra7_p" cx="787.082" cy="170.473" r="9.747" fill="#367cff" opacity="0.5"></circle><circle id="gra7_p-5" data-name="gra7_p" cx="787.082" cy="220.157" r="9.747" fill="#367cff" opacity="0.2"></circle><path d="M593.607,145.631a57.447,57.447,0,0,0,38.316,54.153L616.168,238.2A98.913,98.913,0,0,1,651.029,46.729V88.21A57.422,57.422,0,0,0,593.607,145.631Z" fill="#fff" opacity="0"></path><path d="M593.607,145.631a57.447,57.447,0,0,0,38.316,54.153L616.168,238.2A98.913,98.913,0,0,1,651.029,46.729V88.21A57.422,57.422,0,0,0,593.607,145.631Z" fill="#292a2e"></path><path d="M749.931,145.631H708.45A57.421,57.421,0,0,0,651.029,88.21V46.729A98.908,98.908,0,0,1,749.931,145.631Z" fill="#367cff"></path><path d="M749.931,145.631a98.943,98.943,0,0,1-76.911,96.448l-7.028-41a57.444,57.444,0,0,0,42.458-55.444Z" fill="#367cff" opacity="0.5"></path><path d="M673.02,242.079a99.373,99.373,0,0,1-56.852-3.875l15.755-38.42a57.757,57.757,0,0,0,34.069,1.291Z" fill="#367cff" opacity="0.2"></path><path d="M922.671,71.812h-112.9a.707.707,0,1,1,0-1.414h112.9a.707.707,0,0,1,0,1.414Z" fill="#367cff"></path><path d="M922.671,121.5h-112.9a.707.707,0,1,1,0-1.414h112.9a.707.707,0,0,1,0,1.414Z" fill="#292a2e"></path><g opacity="0.5"><path d="M922.671,171.18h-112.9a.707.707,0,1,1,0-1.413h112.9a.707.707,0,1,1,0,1.413Z" fill="#367cff"></path></g><g opacity="0.2"><path d="M922.671,220.864h-112.9a.707.707,0,1,1,0-1.413h112.9a.707.707,0,1,1,0,1.413Z" fill="#367cff"></path></g><g opacity="0.1"><path d="M923.158,490.891H555.752A12.062,12.062,0,0,1,543.7,478.842V292.7a12.061,12.061,0,0,1,12.048-12.048H923.158A12.062,12.062,0,0,1,935.206,292.7V478.842A12.062,12.062,0,0,1,923.158,490.891Z" fill="#367cff"></path></g><rect id="gra5_b" x="584.684" y="322.877" width="11.051" height="140.539" rx="1.949" fill="#367cff" opacity="0.5"></rect><rect id="gra5_b-2" data-name="gra5_b" x="573.633" y="367.018" width="11.051" height="96.399" rx="1.949" fill="#367cff"></rect><rect id="gra5_b-3" data-name="gra5_b" x="673.125" y="445.634" width="11.051" height="17.783" rx="1.949" fill="#367cff" opacity="0.5"></rect><rect id="gra5_b-4" data-name="gra5_b" x="662.073" y="359.081" width="11.051" height="104.335" rx="1.949" fill="#367cff"></rect><rect id="gra5_b-5" data-name="gra5_b" x="628.905" y="379.294" width="11.051" height="84.122" rx="1.949" fill="#367cff" opacity="0.5"></rect><rect id="gra5_b-6" data-name="gra5_b" x="617.853" y="408.36" width="11.051" height="55.056" rx="1.949" fill="#367cff"></rect><rect id="gra5_b-7" data-name="gra5_b" x="805.785" y="350.058" width="11.051" height="113.359" rx="1.949" fill="#367cff" opacity="0.5"></rect><rect id="gra5_b-8" data-name="gra5_b" x="794.734" y="391.793" width="11.051" height="71.624" rx="1.949" fill="#367cff"></rect><rect id="gra5_b-9" data-name="gra5_b" x="717.345" y="367.74" width="11.051" height="95.676" rx="1.949" fill="#367cff" opacity="0.5"></rect><rect id="gra5_b-10" data-name="gra5_b" x="706.293" y="378.572" width="11.051" height="84.844" rx="1.949" fill="#367cff"></rect><rect id="gra5_b-11" data-name="gra5_b" x="761.565" y="322.877" width="11.051" height="140.539" rx="1.949" fill="#367cff" opacity="0.5"></rect><rect id="gra5_b-12" data-name="gra5_b" x="750.514" y="329.647" width="11.051" height="133.769" rx="1.949" fill="#367cff"></rect><rect id="gra5_b-13" data-name="gra5_b" x="850.005" y="322.877" width="11.051" height="140.539" rx="1.949" fill="#367cff" opacity="0.5"></rect><rect id="gra5_b-14" data-name="gra5_b" x="838.954" y="367.018" width="11.051" height="96.399" rx="1.949" fill="#367cff"></rect><rect id="gra5_b-15" data-name="gra5_b" x="894.225" y="379.294" width="11.051" height="84.122" rx="1.949" fill="#367cff" opacity="0.5"></rect><rect id="gra5_b-16" data-name="gra5_b" x="883.174" y="408.36" width="11.051" height="55.056" rx="1.949" fill="#367cff"></rect><polygon points="303.826 921.93 301.862 921.553 332.558 616.521 334.521 616.899 303.826 921.93" fill="#494949"></polygon><polygon points="418.123 921.93 416.16 921.553 446.855 616.521 448.819 616.899 418.123 921.93" fill="#494949"></polygon><polygon points="670.772 921.93 672.736 921.553 642.04 616.521 640.076 616.899 670.772 921.93" fill="#494949"></polygon><polygon points="556.474 921.93 558.438 921.553 527.742 616.521 525.779 616.899 556.474 921.93" fill="#494949"></polygon><rect x="522.745" y="481.81" width="2" height="135.496" transform="translate(-68.127 74.153) rotate(-7.605)" fill="#494949"></rect><rect x="316.921" y="481.81" width="2" height="135.496" transform="translate(-69.938 46.912) rotate(-7.605)" fill="#494949"></rect><rect x="322.371" y="606.875" width="220.99" height="19.671" rx="9.835" fill="#292a2e"></rect><rect x="322.371" y="606.875" width="220.99" height="19.671" rx="9.835" fill="#fff" opacity="0.8"></rect><path d="M533.526,627.546H332.207a10.836,10.836,0,0,1,0-21.671H533.526a10.836,10.836,0,1,1,0,21.671ZM332.207,607.875a8.836,8.836,0,0,0,0,17.671H533.526a8.836,8.836,0,1,0,0-17.671Z" fill="#292a2e"></path><rect x="432.867" y="606.875" width="220.99" height="19.671" rx="9.835" fill="#fff"></rect><path d="M644.021,627.546H442.7a10.836,10.836,0,0,1,0-21.671H644.021a10.836,10.836,0,1,1,0,21.671ZM442.7,607.875a8.836,8.836,0,0,0,0,17.671H644.021a8.836,8.836,0,1,0,0-17.671Z" fill="#292a2e"></path><path d="M504.738,482.406H309.491a13.145,13.145,0,0,1-13.035-11.447l-12.915-99.18a13.145,13.145,0,0,1,13.035-14.842H491.823a13.145,13.145,0,0,1,13.035,11.447l12.914,99.18A13.144,13.144,0,0,1,504.738,482.406Z" fill="#292a2e"></path><path d="M504.738,482.406H309.491a13.145,13.145,0,0,1-13.035-11.447l-12.915-99.18a13.145,13.145,0,0,1,13.035-14.842H491.823a13.145,13.145,0,0,1,13.035,11.447l12.914,99.18A13.144,13.144,0,0,1,504.738,482.406Z" fill="#fff" opacity="0.8"></path><path d="M504.738,483.406H309.491a14.182,14.182,0,0,1-14.027-12.318l-12.914-99.18a14.144,14.144,0,0,1,14.026-15.971H491.823a14.18,14.18,0,0,1,14.026,12.319l12.915,99.179a14.144,14.144,0,0,1-14.026,15.971ZM296.576,357.937a12.145,12.145,0,0,0-12.043,13.713l12.915,99.18a12.175,12.175,0,0,0,12.043,10.576H504.738a12.145,12.145,0,0,0,12.043-13.713l-12.915-99.18a12.176,12.176,0,0,0-12.043-10.576Z" fill="#292a2e"></path><path d="M515.778,482.406H320.531A13.144,13.144,0,0,1,307.5,470.959l-12.915-99.18a13.144,13.144,0,0,1,13.034-14.842H502.863A13.145,13.145,0,0,1,515.9,368.384l12.915,99.18A13.145,13.145,0,0,1,515.778,482.406Z" fill="#fff"></path><path d="M515.778,483.406H320.531a14.18,14.18,0,0,1-14.026-12.318l-12.915-99.18a14.146,14.146,0,0,1,14.027-15.971H502.863a14.182,14.182,0,0,1,14.027,12.319L529.8,467.435a14.146,14.146,0,0,1-14.027,15.971ZM307.617,357.937a12.145,12.145,0,0,0-12.043,13.713l12.914,99.18a12.176,12.176,0,0,0,12.043,10.576H515.778a12.145,12.145,0,0,0,12.043-13.713l-12.915-99.18a12.175,12.175,0,0,0-12.043-10.576Z" fill="#292a2e"></path><path d="M659.74,869.808s5.362,27.794,31.385,29.343S711.5,921.43,711.5,921.43H612.06V871.746Z" fill="#367cff"></path><path d="M560.513,852.26s-7.457,27.306,15.21,40.183,8.452,28.987,8.452,28.987l-89.232-43.9,21.931-44.581Z" fill="#367cff"></path><path d="M505.245,844.547l95.25-237.39H484.1c-27.4,0-38.822-23.235-38.822-50.633s26.935-51.416,54.334-51.416H663.7c16.711,0,35.449,10.22,44.62,24.19s6.693,35.618.048,50.951l-140.5,292.667" fill="#262626"></path><path d="M505.245,844.547l95.25-237.39H484.1c-27.4,0-38.822-23.235-38.822-50.633s26.935-51.416,54.334-51.416H663.7c16.711,0,35.449,10.22,44.62,24.19s6.693,35.618.048,50.951l-140.5,292.667" fill="#0a0a0a" opacity="0.8"></path><path d="M604.285,889.732l-53.8-282.575-105.209-.011c-38.711-3.034-56.44-24.25-55.876-51.642.556-27.045,14.25-53.757,41.173-53.757H593.24c19.92.409,42.982,19.252,42.982,40.924l41.57,343.778" fill="#262626"></path><path d="M378.127,502.078s-7.337,47.846,4.293,74.447c14.519,33.21,68.947,30.622,68.947,30.622l-3.067-105.4Z" fill="#262626"></path><path d="M406.841,203.86c1.556,35.934-4.648,48.887-20.392,68.758-13.279,16.76,58.7,5.108,90.5.836l-24.374-82.607S406.3,191.241,406.841,203.86Z" fill="#0a0a0a"></path><path d="M513.562,194.555c7.831,35.1,6.325,45.8,23.772,64.8,14.46,15.752-44.544,16.308-76.368,20.444l2.08-86.1S510.812,182.227,513.562,194.555Z" fill="#0a0a0a"></path><path d="M370.041,496.67l-.211.012S369.982,492.606,370.041,496.67Z" fill="#333"></path><path d="M370.307,496.67l-.212.012S370.248,492.606,370.307,496.67Z" fill="#333"></path><path d="M724.492,302.692a4.17,4.17,0,0,0-4.261-2.256.32.32,0,0,0-.39-.358l2.891-2.072a4.339,4.339,0,0,0,1.431-5.518,4.179,4.179,0,0,0-5.283-1.869c.008-.041-.02-.08-.026-.122l1.188-.851a4.282,4.282,0,0,0,1.5-5.205,4.185,4.185,0,0,0-6.251-1.681l-2.74,1.964c-.008-.016,0-.035-.011-.05s-.041-.021-.056-.037a4.177,4.177,0,0,0,.275-5.206c-1.294-2.081-4.28-1.656-6.052-.386l-16.131,11.142,2.884-4.854a4.34,4.34,0,0,0-1.149-5.813,4.18,4.18,0,0,0-5.919,1.34l-15.743,26.5a13.894,13.894,0,0,0,4.512,18.834h0a21.055,21.055,0,0,0,23.531-.676l24.359-17.46A4.477,4.477,0,0,0,724.492,302.692Z" fill="#FAA896"></path><g opacity="0.25"><path d="M696.589,295.736a.386.386,0,0,0,.532.09l15.326-10.615a.386.386,0,0,0-.439-.635l-15.327,10.616a.386.386,0,0,0-.1.537Z" fill="#0c0c0c"></path></g><g opacity="0.25"><path d="M701.085,302.625a.385.385,0,0,0,.531.09l17.105-11.847a.386.386,0,0,0,.1-.537.4.4,0,0,0-.537-.1l-17.1,11.847a.386.386,0,0,0-.1.537Z" fill="#0c0c0c"></path></g><g opacity="0.25"><path d="M705.911,310.114a.385.385,0,0,0,.531.09l13.644-9.45a.386.386,0,1,0-.439-.634L706,309.57a.386.386,0,0,0-.1.537Z" fill="#0c0c0c"></path></g><path d="M690.581,290.187l2.884-4.854a4.34,4.34,0,0,0-1.149-5.813,4.18,4.18,0,0,0-5.919,1.34l-15.743,26.5" fill="#FAA896"></path><path d="M661.364,301.327l-46.233,78.739-56.413-73.993L511.87,348.31l80.006,103.616.525.737a31.988,31.988,0,0,0,54.141-3.962l65.742-119.056Z" fill="#367cff"></path><path d="M610.6,389.534a.586.586,0,0,1-.523-.854l4.532-8.881a.587.587,0,1,1,1.046.534l-4.532,8.881A.587.587,0,0,1,610.6,389.534Z" fill="#0c0c0c"></path><rect x="542.891" y="391.499" width="24.909" height="1.174" transform="translate(132.424 924.324) rotate(-86.752)" fill="#0c0c0c"></rect><path id="sk" d="M504.233,289.252c-.2-.026-2.394,36.4-44.714,33.228-29.3-2.195-39.745-33.28-40.416-33.28,3.158-.671,8.478-1.647,9.881-2.4,4.613-2.479,10.322-5.058,11.808-14.017.857-5.164-.6-31.581-.149-36.806l44.973,10.038c-.629,11.034-5.027,36.614,10.388,41.141C498.569,287.909,501.332,288.6,504.233,289.252Z" fill="#FAA896"></path><path id="sh" d="M486.246,276.706a32.5,32.5,0,0,1-1.352-6.98,74.406,74.406,0,0,1,.293-16.234,49.3,49.3,0,0,1-24.855-10.89c-.836,3.084-5.428,16.56-4.157,19.491C458.579,267.634,469.874,276.706,486.246,276.706Z" fill="#0c0c0c" opacity="0.52"></path><path d="M480.286,265.241c-17.75,1.51-40.608-5.848-45.087-29.513l-4.041-21.354c-4.478-23.666,4.321-45.2,26.6-49.42h0c22.283-4.217,42.568,11.816,47.047,35.482l1.789,9.453C508.316,218.97,511.954,262.546,480.286,265.241Z" fill="#FAA896"></path><circle cx="500.246" cy="208.127" r="2.793" fill="#0c0c0c"></circle><circle cx="471.63" cy="211.949" r="2.793" fill="#0c0c0c"></circle><path d="M487.334,232.427a.332.332,0,0,0,.044-.006,25.262,25.262,0,0,0,2.672-.681c1.31-.421,3.026-1.119,2.8-2.3-.255-1.348-6.7-15.2-7.437-16.773a.572.572,0,1,0-1.037.483c2.75,5.9,7.177,15.6,7.349,16.5-.148.421-2.323,1.22-4.563,1.645a.572.572,0,0,0,.169,1.131Z" fill="#0c0c0c" opacity="0.52"></path><path d="M484.035,242.645a23.4,23.4,0,0,0,10.138-3.852.572.572,0,0,0-.624-.959c-6.56,4.274-13.078,4.965-18.849,2a3.372,3.372,0,0,0-.36-.171.572.572,0,0,0-.389,1.076c.046.019.121.059.225.113A17.162,17.162,0,0,0,484.035,242.645Z" fill="#0c0c0c" opacity="0.52"></path><path d="M437.948,242.676c-6.772,1.281-13.632-4.924-14.914-11.7s3.5-11.545,10.273-12.826l4.348,3.877,6.115,19.543Z" fill="#FAA896"></path><path d="M489.5,201.347a13.111,13.111,0,0,1,6.607-2.086,11.568,11.568,0,0,1,3.435.363,13.632,13.632,0,0,1,3.182,1.261.6.6,0,0,1-.519,1.076l-.043-.019a12.367,12.367,0,0,0-2.921-1,10.119,10.119,0,0,0-3.045-.182,11.484,11.484,0,0,0-5.622,2.031l-.054.039a.9.9,0,1,1-1.053-1.454Z" fill="#0c0c0c"></path><path d="M471.682,205.541a11.507,11.507,0,0,0-5.976.137,10.155,10.155,0,0,0-2.773,1.271,12.285,12.285,0,0,0-2.36,1.992l-.032.032a.6.6,0,0,1-.874-.815,13.637,13.637,0,0,1,2.512-2.325,11.562,11.562,0,0,1,3.071-1.58,13.093,13.093,0,0,1,6.914-.441.9.9,0,1,1-.377,1.756l-.037-.009Z" fill="#0c0c0c"></path><path d="M484.807,248.018a11.716,11.716,0,0,0,1.946-.391.572.572,0,1,0-.316-1.1c-3.83,1.1-6.008-.358-6.1-.421a.572.572,0,0,0-.658.937A7.756,7.756,0,0,0,484.807,248.018Z" fill="#0c0c0c" opacity="0.52"></path><ellipse cx="468.958" cy="230.289" rx="5.321" ry="3.903" transform="translate(-21.945 51.49) rotate(-6.141)" fill="#0c0c0c" opacity="0.1"></ellipse><path d="M500.3,225.971c.237,2.14,2.792,3.621,5.714,3.31a7.317,7.317,0,0,0,1.486-.318c.165-2.547.2-5,.153-7.268a6.7,6.7,0,0,0-2.478-.174C502.256,221.831,500.075,223.823,500.3,225.971Z" fill="#0c0c0c" opacity="0.1"></path><path d="M556.814,369.453c-1.334,15.661-7.818,113-9.1,132.294l-169.586.36c-1-17.4-12.527-93.472-16.31-127.494-3.612-32.464-10.7-48.718-5.5-58.316,8.488-15.686,31.682-24.75,47.5-26.892C413.47,288.1,428,287.161,428,287.161s1.23,24.879,30.556,26.264c39.92,1.883,37.255-26.264,37.452-26.264,6.468,0,43.413,4.093,52.451,9.451C573.085,311.2,559.643,336.266,556.814,369.453Z" fill="#367cff"></path><path d="M666.891,380.393l-16.347,79.453a7.2,7.2,0,0,1-6.991,5.749l-112.561.958a7.2,7.2,0,0,1-7.114-8.651l16.347-79.453a7.2,7.2,0,0,1,6.992-5.748l112.561-.959A7.2,7.2,0,0,1,666.891,380.393Z" fill="#292a2e"></path><path d="M561.931,436.83a4.348,4.348,0,0,1-3.489,4.51l-3.465.764a.4.4,0,0,1,.258.27.329.329,0,0,1-.047.211,4.167,4.167,0,0,1,3.031,3.759,4.475,4.475,0,0,1-3.419,4.37l-29.26,6.5a20.8,20.8,0,0,1-4.558.5,21.057,21.057,0,0,1-17.349-9.127,13.882,13.882,0,0,1,3.242-19.088l24.891-18.195a4.2,4.2,0,0,1,1.856-.764l-2.291,11.124.611-.141.129-.023,19.088-3.888c2.126-.47,5.039.305,5.415,2.725a4.2,4.2,0,0,1-2.3,4.687c.012.011.035.023.035.047s-.012.035-.012.058l3.3-.728a4.181,4.181,0,0,1,5.086,3.994,4.278,4.278,0,0,1-3.43,4.193l-1.421.317c-.012.047,0,.094-.023.13A4.171,4.171,0,0,1,561.931,436.83Z" fill="#FAA896"></path><g opacity="0.25"><path d="M535.293,428.986a.387.387,0,0,0,.454.292l18.264-3.746a.386.386,0,0,0-.156-.756l-18.263,3.746a.386.386,0,0,0-.3.455Z" fill="#0c0c0c"></path></g><g opacity="0.25"><path d="M536.723,437.087a.386.386,0,0,0,.453.291l20.383-4.18a.385.385,0,0,0,.3-.455.4.4,0,0,0-.455-.3l-20.383,4.18a.386.386,0,0,0-.3.456Z" fill="#0c0c0c"></path></g><g opacity="0.25"><path d="M538.221,445.869a.386.386,0,0,0,.453.292l16.259-3.334a.386.386,0,0,0-.155-.756l-16.259,3.334a.385.385,0,0,0-.3.455Z" fill="#0c0c0c"></path></g><path id="b_4_b" d="M523.728,468.787,364.981,497.475a32.25,32.25,0,0,1-35.293-37.411l22.224-132.1a32.25,32.25,0,1,1,63.606,10.7L400.364,429.6l116.385-14.617Z" fill="#367cff"></path><g id="b_4_b-2" data-name="b_4_b"><path d="M364.98,498.063a.588.588,0,0,1-.1-1.166l158.2-28.588-6.832-52.667-115.8,14.544a.578.578,0,0,1-.5-.176.585.585,0,0,1-.156-.5l9.633-58.118a.58.58,0,0,1,.676-.483.588.588,0,0,1,.483.676l-9.5,57.34,115.6-14.517a.593.593,0,0,1,.657.507l6.979,53.8a.588.588,0,0,1-.479.654L365.086,498.053A.634.634,0,0,1,364.98,498.063Z" fill="#0c0c0c"></path></g><rect x="390.088" y="429.835" width="10.341" height="1.176" transform="translate(-63.066 67.888) rotate(-9.095)" fill="#0c0c0c"></rect><path d="M409.082,220.007l21.171-1.408c36.787-7.679,53.078-38.658,53.078-38.658S503.044,205.334,515.373,203c0,0-3.744-63.893-68.788-52.783-21.117,3.606-38.457,23.372-39.675,51.855C406.015,223.012,409.082,220.007,409.082,220.007Z" fill="#0a0a0a"></path><rect x="106.095" y="486.674" width="947.391" height="16.387" rx="8.194" transform="translate(1159.581 989.734) rotate(180)" fill="#292a2e"></rect><rect x="106.095" y="486.674" width="947.391" height="16.387" rx="8.194" transform="translate(1159.581 989.734) rotate(180)" fill="#fff" opacity="0.8"></rect><path d="M105.1,494.867a9.2,9.2,0,0,1,9.193-9.194h931a9.194,9.194,0,0,1,0,18.388h-931A9.2,9.2,0,0,1,105.1,494.867Zm9.193-7.194a7.194,7.194,0,0,0,0,14.388h931a7.194,7.194,0,0,0,0-14.388Z" fill="#292a2e"></path><rect x="106.095" y="486.674" width="766.43" height="16.387" rx="8.194" transform="translate(978.62 989.734) rotate(180)" fill="#fff"></rect><path d="M105.1,494.867a9.2,9.2,0,0,1,9.193-9.194H864.332a9.194,9.194,0,0,1,0,18.388H114.288A9.2,9.2,0,0,1,105.1,494.867Zm9.193-7.194a7.194,7.194,0,0,0,0,14.388H864.332a7.194,7.194,0,0,0,0-14.388Z" fill="#292a2e"></path><path d="M54.443,507.334a35.4,35.4,0,0,1-33.21-47.646c2-5.433,53.36-138.007,62.3-161.049l61.8,35.963c-5.026,12.956-23.239,62.063-37.871,101.623l24.308-2.642,7.652,64.721-81.153,8.823A35.481,35.481,0,0,1,54.443,507.334Z" fill="#DCF247"></path><path id="h_3_sk" d="M256.6,271.072c-.217-.029-6.164,22.354-52.581,18.87-32.134-2.407-39.969-24.279-40.706-24.279,3.465-.737,9.091-1.5,10.63-2.323,5.06-2.718,8.746-6.028,10.6-13.131,1.451-5.554,2.19-26.938,2.19-37.665l49.447,11.11c-.689,12.1-5.513,40.158,11.394,45.124C250.384,269.6,253.415,270.354,256.6,271.072Z" fill="#FAA896"></path><path d="M234.466,247.447c-19.493,1.538-44.534-6.692-49.29-32.7l-4.292-23.467c-4.756-26.007,5.048-49.588,29.535-54.067h0c24.487-4.478,46.646,13.258,51.4,39.265l1.9,10.389C265.546,196.847,269.246,244.7,234.466,247.447Z" fill="#FAA896"></path><path id="b_1_b" d="M142.2,269.263c-17.517,1.3-35.379,3.2-48.268,15.129-15.523,14.372-18.336,32.043-8.433,80.672,8.521,41.843,5.141,60.127,10.841,137.339.168,2.275.528,6.98.528,6.98l198.564-.325s6.379-102.427,16.075-149.675c7.372-35.92,26.735-79.526-54.907-88.315C256.381,271.045,190.9,265.649,142.2,269.263Z" fill="#DCF247"></path><g id="b_4_ha"><path d="M469.628,316.14l-23.566,16.741,2.06-3.383a5.044,5.044,0,0,0-1.532-6.716,4.86,4.86,0,0,0-6.834,1.757l-16.245,29.034a16.1,16.1,0,0,0,5.837,21.71h0a24.479,24.479,0,0,0,27.323-1.582l17.546-13.417a4.979,4.979,0,0,0,1.574-6.1,4.863,4.863,0,0,0-5.1-2.676.441.441,0,0,0-.066-.225.448.448,0,0,0-.378-.193l3.247-2.475a5.043,5.043,0,0,0,1.477-6.458,4.86,4.86,0,0,0-6.209-2,.445.445,0,0,0-.009-.154l1.331-1.014a5.247,5.247,0,0,0,1.6-6.049,4.866,4.866,0,0,0-6.384-2.363l-.048-.08,9.9-7.035a4.584,4.584,0,0,0,.934-6.59A4.759,4.759,0,0,0,469.628,316.14Z" fill="#FAA896"></path><path id="b_4_ha_sh" d="M465.353,331.127a.455.455,0,0,1-.112.111l-9.7,6.721a.457.457,0,1,1-.52-.751l9.7-6.72a.456.456,0,0,1,.632.639Z" fill="#0c0c0c" opacity="0.2"></path><path id="b_4_ha_sh-2" data-name="b_4_ha_sh" d="M468.7,340.359a.438.438,0,0,1-.11.109l-7.58,5.342a.457.457,0,1,1-.527-.746l7.581-5.342a.457.457,0,0,1,.636.637Z" fill="#0c0c0c" opacity="0.2"></path><path id="b_4_ha_sh-3" data-name="b_4_ha_sh" d="M470.616,351.8a.45.45,0,0,1-.119.115l-3.639,2.439a.456.456,0,1,1-.508-.758l3.639-2.439a.457.457,0,0,1,.627.643Z" fill="#0c0c0c" opacity="0.2"></path></g><path d="M328.194,499.7c-13.64-1.728-25.064-9.153-29.294-22.235L249.716,325.354l67.366-21.782L345.952,405.6l70.222-68.767,46.636,47.669L362.551,485.417C356.022,495.8,338.929,501.061,328.194,499.7Z" fill="#DCF247"></path><path d="M96.866,509.855a.473.473,0,0,1-.472-.454L90.522,356.968a.472.472,0,0,1,.453-.489.453.453,0,0,1,.491.453l5.872,152.433a.473.473,0,0,1-.454.489Z" fill="#0c0c0c"></path><path d="M262.524,272.4c-.28,24.85-18.89,35.95-57.13,38.54s-80.43-11.63-74.35-45.59c6.16-34.37,15.2-44.86,17.36-79.58.09-1.6.18-3.26.25-4.97,1.59-39.39,30.09-55.05,44.18-56.98,16.57-2.28,29.05.13,33.93,2.03a51.063,51.063,0,0,1,32.48,30.05,3.788,3.788,0,0,1-4.78,4.93,27.6,27.6,0,0,1-4.23-1.96c1.07,4.11,2.31,13.63-2.41,21.93a147.787,147.787,0,0,0,2.43,27.63c.63,3.8,1.39,7.88,2.28,12.36C259.254,254.542,262.834,244.552,262.524,272.4Z" fill="#0a0a0a"></path><path d="M252.552,208.832c-7.442,1.361-14.93-5.5-16.291-12.939s2.031-15.094,11.558-15.094Z" fill="#FAA896"></path><path d="M351.965,427.027a.473.473,0,0,1-.457-.353l-5.569-21.453a.473.473,0,1,1,.915-.237l5.569,21.453a.473.473,0,0,1-.339.575A.485.485,0,0,1,351.965,427.027Z" fill="#0c0c0c"></path><path d="M229,855.529l-4.139,65.13,88.946.424s4.533-16.348-16.312-23.327c-11.59-3.88-19.155-16.923-16.791-33.016Z" fill="#383838"></path><path d="M229,855.529l-4.139,65.13,88.946.424s4.533-16.348-16.312-23.327c-11.59-3.88-19.155-16.923-16.791-33.016Z" fill="#070707" opacity="0.17"></path><path d="M349,855.529l-4.139,65.13,88.946.424s4.533-16.348-16.312-23.327c-11.59-3.88-19.155-16.923-16.791-33.016Z" fill="#383838"></path><polygon points="314.027 552.071 298.416 885.809 218.461 883.122 225.295 549.089 314.027 552.071" fill="#292a2e"></polygon><polygon points="314.027 552.071 298.416 885.809 218.461 883.122 225.295 549.089 314.027 552.071" fill="#fff" opacity="0.52"></polygon><path d="M333.46,883.892l79.945-2.988-6.962-320.063c.042-.771.07-1.546.077-2.326h0a49.378,49.378,0,0,0-.242-5.242l-.009-.416h-.04a48.772,48.772,0,0,0-48.385-43.5l-190.689-.366,0-.134H96.884s-7.244,48.178,4.386,74.779c14.519,33.21,69.187,24.242,69.187,24.242l-.032-.978h147.5Z" fill="#292a2e"></path><path d="M333.46,883.892l79.945-2.988-6.962-320.063c.042-.771.07-1.546.077-2.326h0a49.378,49.378,0,0,0-.242-5.242l-.009-.416h-.04a48.772,48.772,0,0,0-48.385-43.5l-190.689-.366,0-.134H96.884s-7.244,48.178,4.386,74.779c14.519,33.21,69.187,24.242,69.187,24.242l-.032-.978h147.5Z" fill="#fff" opacity="0.64"></path><polygon points="435.069 922.952 437.033 922.574 396.337 617.543 394.374 617.921 435.069 922.952" fill="#494949"></polygon><polygon points="310.772 922.952 312.735 922.574 282.04 617.543 280.076 617.921 310.772 922.952" fill="#494949"></polygon><path d="M270.076,483.428H74.829A13.145,13.145,0,0,1,61.794,471.98L48.879,372.8a13.145,13.145,0,0,1,13.035-14.842H257.161A13.145,13.145,0,0,1,270.2,369.406l12.915,99.18A13.146,13.146,0,0,1,270.076,483.428Z" fill="#fff"></path><path d="M270.076,484.428H74.829A14.182,14.182,0,0,1,60.8,472.109L47.888,372.93a14.146,14.146,0,0,1,14.026-15.972H257.161a14.18,14.18,0,0,1,14.026,12.319l12.915,99.18a14.144,14.144,0,0,1-14.026,15.971ZM61.914,358.958a12.146,12.146,0,0,0-12.043,13.714l12.915,99.18a12.175,12.175,0,0,0,12.043,10.576H270.076a12.145,12.145,0,0,0,12.043-13.713L269.2,369.535a12.176,12.176,0,0,0-12.043-10.577Z" fill="#292a2e"></path><rect x="187.164" y="607.897" width="220.99" height="19.671" rx="9.835" fill="#fff"></rect><path d="M398.319,628.567H197a10.835,10.835,0,1,1,0-21.67H398.319a10.835,10.835,0,1,1,0,21.67ZM197,608.9a8.835,8.835,0,1,0,0,17.67H398.319a8.835,8.835,0,1,0,0-17.67Z" fill="#292a2e"></path><polygon points="58.123 922.952 56.159 922.574 86.855 617.543 88.819 617.921 58.123 922.952" fill="#494949"></polygon><polygon points="172.421 922.952 170.457 922.574 201.153 617.543 203.116 617.921 172.421 922.952" fill="#494949"></polygon><rect x="277.042" y="482.832" width="2" height="135.496" transform="translate(-70.424 41.643) rotate(-7.605)" fill="#494949"></rect><rect x="71.218" y="482.832" width="2" height="135.496" transform="translate(-72.235 14.402) rotate(-7.605)" fill="#494949"></rect><rect x="76.669" y="607.897" width="220.99" height="19.671" rx="9.835" fill="#292a2e"></rect><rect x="76.669" y="607.897" width="220.99" height="19.671" rx="9.835" fill="#fff" opacity="0.8"></rect><path d="M287.824,628.567H86.5a10.835,10.835,0,0,1,0-21.67h201.32a10.835,10.835,0,0,1,0,21.67ZM86.5,608.9a8.835,8.835,0,0,0,0,17.67h201.32a8.835,8.835,0,0,0,0-17.67Z" fill="#292a2e"></path><path d="M259.035,483.428H63.788A13.144,13.144,0,0,1,50.754,471.98L37.839,372.8a13.144,13.144,0,0,1,13.035-14.842H246.121a13.144,13.144,0,0,1,13.034,11.447l12.915,99.18A13.145,13.145,0,0,1,259.035,483.428Z" fill="#292a2e"></path><path d="M259.035,483.428H63.788A13.144,13.144,0,0,1,50.754,471.98L37.839,372.8a13.144,13.144,0,0,1,13.035-14.842H246.121a13.144,13.144,0,0,1,13.034,11.447l12.915,99.18A13.145,13.145,0,0,1,259.035,483.428Z" fill="#fff" opacity="0.8"></path><path d="M259.035,484.428H63.788a14.181,14.181,0,0,1-14.026-12.319L36.847,372.93a14.146,14.146,0,0,1,14.026-15.972H246.12a14.182,14.182,0,0,1,14.027,12.319l12.915,99.18a14.146,14.146,0,0,1-14.027,15.971ZM50.873,358.958a12.144,12.144,0,0,0-12.042,13.713l12.914,99.181a12.177,12.177,0,0,0,12.043,10.576H259.035a12.145,12.145,0,0,0,12.043-13.713l-12.915-99.18a12.175,12.175,0,0,0-12.043-10.577Z" fill="#292a2e"></path><circle cx="656.774" cy="381.699" r="3.846" fill="#fff"></circle><path d="M917.6,475.818l-17.5-96.835a8.477,8.477,0,0,0-8.061-5.854H763.7a8.476,8.476,0,0,0-8.06,11.1l17.5,96.835a8.475,8.475,0,0,0,8.06,5.854h128.34A8.476,8.476,0,0,0,917.6,475.818Z" fill="#fff"></path><path d="M909.54,487.916H781.2a9.452,9.452,0,0,1-9.011-6.544l-.033-.132-17.49-96.77a9.475,9.475,0,0,1,9.032-12.341H892.038a9.45,9.45,0,0,1,9.01,6.544l.034.132,17.49,96.77a9.477,9.477,0,0,1-9.032,12.341Zm-135.429-7.1a7.454,7.454,0,0,0,7.088,5.1H909.54a7.474,7.474,0,0,0,7.108-9.788l-.033-.132L899.126,379.23a7.456,7.456,0,0,0-7.088-5.1H763.7a7.475,7.475,0,0,0-7.108,9.789l.033.131Z" fill="#292a2e"></path><path d="M913,481.192,894.7,381.923a4.446,4.446,0,0,0-4.228-3.07H766.362a4.445,4.445,0,0,0-4.227,5.82l17.4,96.519Z" fill="#fff"></path><path d="M914.2,482.192H778.7l-17.536-97.277a5.445,5.445,0,0,1,5.2-7.063H890.474a5.434,5.434,0,0,1,5.179,3.761l.032.128Zm-133.827-2H911.8l-18.064-98.019a3.435,3.435,0,0,0-3.257-2.321H766.362a3.445,3.445,0,0,0-3.276,4.512l.033.132Z" fill="#292a2e"></path><path d="M839.566,424.769A19.285,19.285,0,0,0,826.7,406.588l5.289-12.9a33.209,33.209,0,0,1-11.7,64.286V444.047A19.278,19.278,0,0,0,839.566,424.769Z" fill="#fff" opacity="0"></path><path d="M839.566,424.769A19.285,19.285,0,0,0,826.7,406.588l5.289-12.9a33.209,33.209,0,0,1-11.7,64.286V444.047A19.278,19.278,0,0,0,839.566,424.769Z" fill="#292a2e"></path><path d="M787.082,424.769h13.926a19.279,19.279,0,0,0,19.279,19.278v13.927A33.207,33.207,0,0,1,787.082,424.769Z" fill="#367cff"></path><path d="M787.082,424.769A33.22,33.22,0,0,1,812.9,392.387l2.359,13.767a19.287,19.287,0,0,0-14.255,18.615Z" fill="#367cff" opacity="0.5"></path><path d="M812.9,392.387a33.368,33.368,0,0,1,19.087,1.3l-5.289,12.9a19.4,19.4,0,0,0-11.439-.434Z" fill="#367cff" opacity="0.2"></path><rect x="774.091" y="478.815" width="207.598" height="7.852" rx="3.926" fill="#fff"></rect><path d="M977.763,487.667H778.016a4.926,4.926,0,1,1,0-9.852H977.763a4.926,4.926,0,0,1,0,9.852Zm-199.747-7.852a2.926,2.926,0,1,0,0,5.852H977.763a2.926,2.926,0,0,0,0-5.852Z" fill="#292a2e"></path><path id="sk-2" data-name="sk" d="M928.3,275.752c.217-.028,2.619,39.828,48.92,36.353,32.054-2.4,43.483-36.409,44.217-36.409-3.456-.735-9.275-1.8-10.81-2.622-5.048-2.712-12.237-5.534-13.864-15.336-.937-5.649.653-34.551.164-40.267l-48.259,10.982c.688,12.072,5.5,40.058-11.366,45.011C934.493,274.283,931.471,275.037,928.3,275.752Z" fill="#FAA896"></path><path d="M950.023,247.282c19.431,1.5,44.375-6.746,49.071-32.675l4.238-23.4c4.7-25.93-5.115-49.416-29.529-53.838h0c-24.414-4.422-46.469,13.293-51.165,39.222l-1.876,10.358a79.347,79.347,0,0,0-1.013,10.784c-.314,9.549-.754,24.073,3.97,34.742C928.18,242.551,937.609,246.324,950.023,247.282Z" fill="#FAA896"></path><path d="M993.6,136.045A90.459,90.459,0,0,0,969.809,132c-.783-3.082-2.526-5.478-5.091-6.479-4.268-1.668-9.483,1.018-12.952,6.194-1.93-2.956-4.543-5.62-8.008-6.7-9.557-2.976-10.032,10.754-10.032,10.754s-15.154-14.954-15.627,4.119c-.573,23.076,3.666,29.843,6.76,31.552,6.11,3.374,10.659,2.8,13.077,7.767,7.322,15.031.146,57.371,8.618,62.672,12.98,8.122,39.566,8.4,48.2,7.785,3.32-.238,6.428-4.087,7.826-7.108,4.517-9.754,14.589-31.866,17.392-41.011C1025.148,184.666,1024.758,146.219,993.6,136.045Z" fill="#0c0c0c"></path><path d="M940.754,226.751c7.5-.813,12.7-9.492,11.888-16.988s-7.339-10.97-14.835-10.157l-3.317,5.442-.181,22.4Z" fill="#FAA896"></path><path d="M1065.968,503.6l.232.013S1066.033,499.142,1065.968,503.6Z" fill="#333"></path><path d="M861.735,363.941c1.463,17.192,8.582,124.455,9.989,145.632h193.915c1.1-19.1,6.014-102.618,10.169-139.967,3.965-35.641,11.745-53.486,6.042-64.022-9.319-17.221-34.782-27.172-52.145-29.523-10.6-1.435-12.787-2.464-17.108-2.464H937.934c-7.1,0-52.438,6.841-61.731,13.673C850.477,306.184,858.629,327.507,861.735,363.941Z" fill="#367cff"></path><path d="M1107.042,508.45a35.4,35.4,0,0,0,33.213-47.651c-2-5.433-48.969-129.8-57.91-152.847l-66.205,26.825c5.027,12.958,23.241,62.069,37.875,101.632l-24.311-2.642-7.652,70.392,81.159,4.083A35.515,35.515,0,0,0,1107.042,508.45Z" fill="#367cff"></path><rect x="997.859" y="439.315" width="139.309" height="1.289" transform="translate(591.31 1491.806) rotate(-88.04)" fill="#0c0c0c"></rect><path d="M833.685,508.45A35.4,35.4,0,0,1,800.472,460.8c2-5.433,50.937-130.35,59.877-153.395l64.238,27.373c-5.027,12.958-23.242,62.069-37.875,101.632l24.311-2.642,7.652,70.392-81.16,4.083A35.483,35.483,0,0,1,833.685,508.45Z" fill="#367cff"></path><path d="M886.56,428.154a.7.7,0,0,1-.214-.033.707.707,0,0,1-.46-.889l17.187-54.107a.708.708,0,0,1,1.35.428l-17.188,54.108A.708.708,0,0,1,886.56,428.154Z" fill="#0c0c0c"></path><path d="M834.224,855.529l4.139,65.13-88.946.424s-4.532-16.348,16.313-23.327c11.589-3.88,19.155-16.923,16.79-33.016Z" fill="#383838"></path><path d="M834.224,855.529l4.139,65.13-88.946.424s-4.532-16.348,16.313-23.327c11.589-3.88,19.155-16.923,16.79-33.016Z" fill="#070707" opacity="0.17"></path><path d="M930.308,855.529l16.337,49.148-62.087,16.238-35.141.168s-4.532-16.348,16.313-23.327c11.589-3.88,15.238-16.923,12.874-33.016Z" fill="#383838"></path><g opacity="0.75"><polygon points="936.462 561.987 843.441 894.744 766.127 874.187 850.661 539.173 936.462 561.987" fill="#fff"></polygon></g><polygon points="936.462 561.987 843.441 894.744 766.127 874.187 850.661 539.173 936.462 561.987" fill="#383838"></polygon><g opacity="0.52"><polygon points="936.462 561.987 843.441 894.744 766.127 874.187 850.661 539.173 936.462 561.987" fill="#fff"></polygon></g><path d="M805.378,509.355A48.771,48.771,0,0,0,756.7,558.514h0a48.563,48.563,0,0,0,5.744,22.575l109.344,313.8,76-24.979L866.485,606.9h149.327a49.755,49.755,0,0,0,49.748-48.966l.778-49.077Z" fill="#383838"></path><path d="M805.378,509.355A48.771,48.771,0,0,0,756.7,558.514h0a48.563,48.563,0,0,0,5.744,22.575l109.344,313.8,76-24.979L866.485,606.9h149.327a49.755,49.755,0,0,0,49.748-48.966l.778-49.077Z" fill="#fff" opacity="0.64"></path><polygon points="721.383 922.952 719.419 922.574 760.115 617.543 762.079 617.921 721.383 922.952" fill="#494949"></polygon><polygon points="845.681 922.952 843.717 922.574 874.412 617.543 876.376 617.921 845.681 922.952" fill="#494949"></polygon><path d="M886.376,483.428h195.247a13.145,13.145,0,0,0,13.035-11.448l12.915-99.179a13.145,13.145,0,0,0-13.035-14.842H899.291a13.145,13.145,0,0,0-13.035,11.447l-12.914,99.18A13.144,13.144,0,0,0,886.376,483.428Z" fill="#fff"></path><path d="M875.748,479.617a14.149,14.149,0,0,1-3.4-11.16l12.915-99.18a14.181,14.181,0,0,1,14.026-12.319h195.247a14.146,14.146,0,0,1,14.026,15.972l-12.914,99.179a14.182,14.182,0,0,1-14.027,12.319H886.376A14.148,14.148,0,0,1,875.748,479.617Zm23.543-120.659a12.177,12.177,0,0,0-12.043,10.577l-12.915,99.18a12.145,12.145,0,0,0,12.043,13.713h195.247a12.175,12.175,0,0,0,12.043-10.576l12.915-99.18a12.146,12.146,0,0,0-12.043-13.714Z" fill="#292a2e"></path><rect x="748.298" y="607.897" width="220.99" height="19.671" rx="9.835" transform="translate(1717.586 1235.464) rotate(180)" fill="#fff"></rect><path d="M747.3,617.732A10.848,10.848,0,0,1,758.133,606.9H959.452a10.835,10.835,0,1,1,0,21.67H758.133A10.848,10.848,0,0,1,747.3,617.732Zm10.836-8.835a8.835,8.835,0,1,0,0,17.67H959.452a8.835,8.835,0,1,0,0-17.67Z" fill="#292a2e"></path><polygon points="1098.329 922.952 1100.293 922.574 1069.597 617.543 1067.633 617.921 1098.329 922.952" fill="#494949"></polygon><polygon points="984.031 922.952 985.995 922.574 955.3 617.543 953.336 617.921 984.031 922.952" fill="#494949"></polygon><rect x="810.662" y="549.58" width="135.496" height="2" transform="translate(216.415 1348.392) rotate(-82.395)" fill="#494949"></rect><rect x="1016.486" y="549.58" width="135.496" height="2" transform="translate(394.998 1552.406) rotate(-82.395)" fill="#494949"></rect><rect x="858.793" y="607.897" width="220.99" height="19.671" rx="9.835" transform="translate(1938.576 1235.464) rotate(180)" fill="#292a2e"></rect><rect x="858.793" y="607.897" width="220.99" height="19.671" rx="9.835" transform="translate(1938.576 1235.464) rotate(180)" fill="#fff" opacity="0.8"></rect><path d="M857.793,617.732A10.847,10.847,0,0,1,868.628,606.9h201.32a10.835,10.835,0,0,1,0,21.67H868.628A10.847,10.847,0,0,1,857.793,617.732Zm10.835-8.835a8.835,8.835,0,0,0,0,17.67h201.32a8.835,8.835,0,0,0,0-17.67Z" fill="#292a2e"></path><path d="M897.417,483.428h195.247A13.146,13.146,0,0,0,1105.7,471.98l12.914-99.179a13.144,13.144,0,0,0-13.034-14.842H910.332A13.145,13.145,0,0,0,897.3,369.406l-12.915,99.18A13.145,13.145,0,0,0,897.417,483.428Z" fill="#292a2e"></path><path d="M897.417,483.428h195.247A13.146,13.146,0,0,0,1105.7,471.98l12.914-99.179a13.144,13.144,0,0,0-13.034-14.842H910.332A13.145,13.145,0,0,0,897.3,369.406l-12.915,99.18A13.145,13.145,0,0,0,897.417,483.428Z" fill="#fff" opacity="0.8"></path><path d="M886.789,479.617a14.15,14.15,0,0,1-3.4-11.16l12.916-99.18a14.18,14.18,0,0,1,14.026-12.319h195.247a14.146,14.146,0,0,1,14.026,15.972l-12.915,99.179a14.18,14.18,0,0,1-14.026,12.319H897.417A14.148,14.148,0,0,1,886.789,479.617Zm23.543-120.659a12.175,12.175,0,0,0-12.043,10.577l-12.915,99.18a12.145,12.145,0,0,0,12.043,13.713h195.247a12.176,12.176,0,0,0,12.043-10.576l12.914-99.181a12.144,12.144,0,0,0-12.042-13.713Z" fill="#292a2e"></path><path d="M.7,922.494h1120.42a.7.7,0,0,0,0-1.4H.7a.7.7,0,1,0,0,1.4Z" fill="#292a2e"></path><g opacity="0.65"><path d="M.7,922.494h1120.42a.7.7,0,0,0,0-1.4H.7a.7.7,0,1,0,0,1.4Z" fill="#292a2e"></path></g></svg>